<svg xmlns="http://www.w3.org/2000/svg" xmlns:xlink="http://www.w3.org/1999/xlink" viewBox="0 0 44 44"><g fill-rule="evenodd"><path d="M21.186 3c-10.853 0-19.36 8.506-19.36 19.358C1.827 32.494 10.334 41 21.187 41c10.133 0 18.64-8.506 18.64-18.642C39.827 11.506 31.32 3 21.187 3m15.64 19c0 8.823-7.178 16-16 16s-16-7.177-16-16 7.178-16 16-16 16 7.177 16 16z"/><path d="M22.827 31.5a1.5 1.5 0 1 1-3 0 1.5 1.5 0 0 1 3 0m4-15.48c0 .957-.203 1.822-.61 2.593-.427.792-1.117 1.612-2.073 2.457-.867.734-1.453 1.435-1.754 2.096-.302.7-.453 1.693-.453 2.98a.828.828 0 0 1-.823.854.828.828 0 0 1-.584-.22.877.877 0 0 1-.24-.635c0-1.305.168-2.38.506-3.227.336-.883.93-1.682 1.78-2.4 1.01-.883 1.71-1.692 2.1-2.428.336-.645.503-1.38.503-2.21-.02-.935-.3-1.7-.85-2.288-.655-.717-1.62-1.075-2.897-1.075-1.506 0-2.596.535-3.27 1.6-.46.754-.688 1.645-.688 2.677a.92.92 0 0 1-.266.66.747.747 0 0 1-.56.25.73.73 0 0 1-.584-.194c-.16-.164-.24-.393-.24-.69 0-1.82.585-3.272 1.755-4.357C18.645 11.486 19.928 11 21.434 11h.293c1.452 0 2.638.414 3.56 1.24 1.028.903 1.54 2.163 1.54 3.78z"/></g></svg>