<svg xmlns="http://www.w3.org/2000/svg" xmlns:xlink="http://www.w3.org/1999/xlink" viewBox="0 0 48 48"><g fill-rule="evenodd"><path d="M24 48c13.255 0 24-10.745 24-24S37.255 0 24 0 0 10.745 0 24s10.745 24 24 24zm0-3c11.598 0 21-9.402 21-21S35.598 3 24 3 3 12.402 3 24s9.402 21 21 21z"/><path d="M24.34 22.22l-7.775-7.775a1.5 1.5 0 1 0-2.12 2.12l7.773 7.775-7.774 7.775a1.5 1.5 0 1 0 2.12 2.12l7.775-7.773 7.774 7.774a1.5 1.5 0 1 0 2.12-2.12L26.46 24.34l7.774-7.774a1.5 1.5 0 1 0-2.12-2.12l-7.776 7.773z"/></g></svg>