<svg xmlns="http://www.w3.org/2000/svg" xmlns:xlink="http://www.w3.org/1999/xlink" viewBox="0 0 64 64"><path d="M59.58 40.89L41.193 9.11C39.135 5.382 35.723 3 31.387 3c-3.11 0-6.52 2.382-8.58 6.11L4.42 40.89c-2.788 4.635-3.126 8.81-1.225 12.22C5.015 56.208 7.572 58 13 58h36.773c5.428 0 9.21-1.792 11.03-4.89 1.9-3.41 1.565-7.583-1.224-12.22zm-2.452 11c-.635 1.694-3.802 2.443-7.354 2.443H13c-3.59 0-5.493-.75-6.13-2.444-1.71-2.41-1.374-5.263 0-8.557l18.387-31.777c2.116-3.168 4.394-4.89 6.13-4.89 2.96 0 5.238 1.722 7.354 4.89l18.387 31.777c1.374 3.294 1.713 6.146 0 8.556zm-25.74-33c-.405 0-1.227.835-1.227 2.443v15.89c0 1.608.823 2.444 1.227 2.444 1.628 0 2.452-.836 2.452-2.445v-15.89c0-1.607-.825-2.443-2.453-2.443zm0 23.22c-.405 0-1.227.79-1.227 1.223v2.445c0 .434.823 1.222 1.227 1.222 1.628 0 2.452-.788 2.452-1.222v-2.445c0-.434-.825-1.222-2.453-1.222z" fill-rule="evenodd"/></svg>