<svg xmlns="http://www.w3.org/2000/svg" xmlns:xlink="http://www.w3.org/1999/xlink" viewBox="0 0 44 44"><circle cx="13.828" cy="19.63" r="1.938"/><circle cx="21.767" cy="19.63" r="1.938"/><circle cx="29.767" cy="19.63" r="1.938"/><path d="M22.102 4.16c-9.918 0-17.958 7.147-17.958 15.962 0 4.935 2.522 9.345 6.48 12.273v5.667l.04.012a2.627 2.627 0 1 0 4.5 1.455h.002l5.026-3.54c.628.06 1.265.094 1.91.094 9.92 0 17.96-7.146 17.96-15.96C40.06 11.306 32.02 4.16 22.1 4.16zm-.04 29.902c-.902 0-1.78-.08-2.642-.207l-5.882 4.234c-.024.024-.055.04-.083.06l-.008.005a.51.51 0 0 1-.284.095.525.525 0 0 1-.525-.525l.005-6.375c-3.91-2.516-6.456-6.544-6.456-11.1 0-7.628 7.107-13.812 15.875-13.812s15.875 6.184 15.875 13.812-7.107 13.812-15.875 13.812z"/></svg>