<svg xmlns="http://www.w3.org/2000/svg" xmlns:xlink="http://www.w3.org/1999/xlink" viewBox="0 0 38 33"><g fill-rule="evenodd"><path d="M17.838 28.8c-.564-.468-1.192-.983-1.836-1.496-4.244-3.385-5.294-3.67-6.006-3.67-.014 0-.027.005-.04.005-.015 0-.028-.006-.042-.006H3.562c-.734 0-.903-.203-.903-.928v-12.62c0-.49.057-.8.66-.8H9.1c.694 0 1.76-.28 6.4-3.63.83-.596 1.638-1.196 2.337-1.722V28.8zM19.682.19c-.463-.22-1.014-.158-1.417.157-.02.016-1.983 1.552-4.152 3.125C10.34 6.21 9.243 6.664 9.02 6.737H3.676c-.027 0-.053.003-.08.004H1.183c-.608 0-1.1.487-1.1 1.086V25.14c0 .598.492 1.084 1.1 1.084h8.71c.22.08 1.257.55 4.605 3.24 1.947 1.562 3.694 3.088 3.712 3.103.25.22.568.333.89.333.186 0 .373-.038.55-.116.48-.213.79-.684.79-1.204V1.38c0-.506-.294-.968-.758-1.19z" mask="url(#mask-2)"/><path d="M31.42 16.475c0-3.363-1.854-6.297-4.606-7.876-.125-.067-.42-.193-.625-.193-.613 0-1.11.488-1.11 1.09 0 .404.22.764.55.952 2.13 1.19 3.566 3.44 3.566 6.024 0 2.627-1.486 4.913-3.677 6.087-.32.19-.53.54-.53.935 0 .602.495 1.09 1.106 1.09.26.002.568-.15.568-.15 2.835-1.556 4.754-4.538 4.754-7.96" mask="url(#mask-4)"/><path d="M30.14 3.057c-.205-.122-.41-.22-.658-.22-.608 0-1.1.485-1.1 1.084 0 .434.26.78.627.978 4.042 2.323 6.76 6.636 6.76 11.578 0 4.938-2.715 9.248-6.754 11.572-.354.19-.66.55-.66.993 0 .6.494 1.085 1.102 1.085.243 0 .438-.092.65-.213 4.692-2.695 7.848-7.7 7.848-13.435 0-5.723-3.142-10.718-7.817-13.418" mask="url(#mask-6)"/></g></svg>